<?xml version="1.0" encoding="UTF-8"?>
<svg enable-background="new 0 0 460 460" version="1.1" viewBox="0 0 460 460" xml:space="preserve" xmlns="http://www.w3.org/2000/svg">

    <style>
      path {
        fill: #000;
      }
      @media (prefers-color-scheme: dark) {
        path {
          fill: #fff;
        }
      }
    </style>

		<path fill-rule="evenodd" d="m369.64 0h-279.27c-16.77 0-30.365 13.595-30.365 30.365v399.27c0 16.77 13.595 30.365 30.365 30.365h279.27c16.77 0 30.365-13.595 30.365-30.365v-399.27c0-16.77-13.595-30.365-30.365-30.365zm-261.43 343.61v-43.196c0-3.451 2.797-6.248 6.248-6.248h43.196c3.451 0 6.248 2.797 6.248 6.248v43.196c0 3.451-2.797 6.248-6.248 6.248h-43.196c-3.451 0-6.248-2.798-6.248-6.248zm0-87v-43.196c0-3.451 2.797-6.248 6.248-6.248h43.196c3.451 0 6.248 2.797 6.248 6.248v43.196c0 3.451-2.797 6.248-6.248 6.248h-43.196c-3.451 0-6.248-2.798-6.248-6.248zm200.69 164.39h-157.78c-11.046 0-20-8.954-20-20s8.954-20 20-20h157.78c11.046 0 20 8.954 20 20s-8.954 20-20 20zm-100.49-126.84h43.196c3.451 0 6.248 2.797 6.248 6.248v43.196c0 3.451-2.797 6.248-6.248 6.248h-43.196c-3.451 0-6.248-2.797-6.248-6.248v-43.196c0-3.45 2.797-6.248 6.248-6.248zm-6.248-37.555v-43.196c0-3.451 2.797-6.248 6.248-6.248h43.196c3.451 0 6.248 2.797 6.248 6.248v43.196c0 3.451-2.797 6.248-6.248 6.248h-43.196c-3.451 0-6.248-2.798-6.248-6.248zm143.39 93.248h-43.196c-3.451 0-6.248-2.797-6.248-6.248v-43.196c0-3.451 2.797-6.248 6.248-6.248h43.196c3.451 0 6.248 2.797 6.248 6.248v43.196c0 3.451-2.797 6.248-6.248 6.248zm0-87h-43.196c-3.451 0-6.248-2.797-6.248-6.248v-43.196c0-3.451 2.797-6.248 6.248-6.248h43.196c3.451 0 6.248 2.797 6.248 6.248v43.196c0 3.451-2.797 6.248-6.248 6.248zm8.452-113.22c0 11.799-9.565 21.363-21.363 21.363h-205.27c-11.799 0-21.364-9.565-21.364-21.363v-87.274c0-11.798 9.565-21.363 21.364-21.363h205.27c11.798 0 21.363 9.565 21.363 21.363z"/>
	</svg>
